<svg preserveAspectRatio="none" width="100%" height="100%" overflow="visible" style="display: block;" viewBox="0 0 24 24" fill="none" xmlns="http://www.w3.org/2000/svg">
<g id="logo">
<rect width="24" height="24" rx="6" fill="var(--fill-0, #121926)"/>
<path id="Star 1" d="M11.6249 7.0138C11.7537 6.66556 12.2463 6.66556 12.3751 7.0138L12.9822 8.65449C13.3874 9.74937 14.2506 10.6126 15.3455 11.0178L16.9862 11.6249C17.3344 11.7537 17.3344 12.2463 16.9862 12.3751L15.3455 12.9822C14.2506 13.3874 13.3874 14.2506 12.9822 15.3455L12.3751 16.9862C12.2463 17.3344 11.7537 17.3344 11.6249 16.9862L11.0178 15.3455C10.6126 14.2506 9.74937 13.3874 8.65449 12.9822L7.0138 12.3751C6.66556 12.2463 6.66556 11.7537 7.0138 11.6249L8.65449 11.0178C9.74937 10.6126 10.6126 9.74937 11.0178 8.65449L11.6249 7.0138Z" fill="var(--fill-0, white)"/>
</g>
</svg>
